<svg xmlns="http://www.w3.org/2000/svg" viewBox="0 0 596.28 842.64"><defs><style>.cls-1{fill:#4b4baf;}.cls-2,.cls-3{fill:#ff764d;}.cls-2{stroke:#ff764d;stroke-miterlimit:10;}</style></defs><g id="Capa_1_copia" data-name="Capa 1 copia"><rect class="cls-1" x="100.34" y="217.97" width="395.6" height="388.13"/><path class="cls-2" d="M459.66,439c-.12,24.14-8.4,45.45-26.51,63.25-12.79,12.57-28.55,19.73-47.38,21-19,1.32-36.53-2.35-51.76-13.23a81.34,81.34,0,0,1-27.8-34.64c-5.91-13.73-7.67-28-6.57-42.68,1.69-22.51,10.63-42.18,27.88-58.39,13.43-12.61,30.09-18.81,49.32-19.27,18.76-.46,35.53,4.43,49.87,15.63a84.4,84.4,0,0,1,33,68.29Zm-21.13-.24c-.22-4.13-.31-8.26-.69-12.38-1.13-12.5-1.95-24.68-8.27-36.14-8.55-15.48-23.7-26.06-45-27.48-18.65-1.26-34.34,3.62-45.87,16.45-8.53,9.49-12.8,20.47-15.42,32a132.84,132.84,0,0,0-2.37,42.3c1.22,12.78,4.45,25.15,11.21,36.73,8.5,14.58,21.22,24.55,41.37,26.11,14.29,1.11,27.35-1.51,38.4-9.6,8.2-6,13.59-13.62,17.5-22C436.26,469.91,438.37,454.48,438.53,438.77Z"/><path class="cls-3" d="M141.16,403v0c.74-29.67,4.68-58.65,15.62-86.4,5.62-14.29,12.85-27.62,25-37.43,23.24-18.72,55.05-14.52,74.05,9.63C268.65,305,275.25,324,279.52,343.89c9.33,43.51,8.91,86.67-6.13,129-4.74,13.35-11.13,25.85-20.81,36.44-22.28,24.38-63.34,25.11-85.36-8.41-13.24-20.14-20.13-42.61-23.38-66.23C142.39,424.22,142,413.57,141.16,403Zm22.17-11.41c0,.12.1.19.2.25a4.08,4.08,0,0,0,2.54.37c30.35,0,60.71,0,91.07.09,3.81,0,4.78-1.29,4.51-4.21-1.81-19.47-2.81-39-5.56-58.39-1.89-13.33-6.51-26.32-15.6-37.72-14.29-17.91-39.85-18.65-54.78-1.24A64.92,64.92,0,0,0,176,306.9c-8.11,18.39-9.43,37.81-11,57.16C164.23,373.16,163.87,382.29,163.33,391.57Zm.49,11.66a.23.23,0,0,0-.22.19,8.34,8.34,0,0,0-.27,2.46c0,20.92,1.12,41.76,6,62.39,3.16,12.22,7.6,23.61,16,34,13.15,16.21,41.27,20.75,56-1.34a85,85,0,0,0,8.88-17.12c7.78-20.74,10-42.25,11.34-63.84.33-5.46.06-10.94.05-16.53a.23.23,0,0,0-.23-.23Z"/><path class="cls-3" d="M140.66,403c.86-37.14,8.24-87.11,32.78-116.2,19.09-22.19,50.19-26.4,73.22-7.56,10.53,8.7,17.7,20.83,23.17,33.2,17,42.41,20.67,96.13,9.67,140.45-7.7,31.57-24.13,70.1-60.8,74-21,2.5-41-8.64-52.11-26.27-11.25-17.16-18.19-36.85-21.81-57-2.56-13.4-3.07-27.08-4.12-40.64Zm1-.08c1,13.56,1.51,27.17,4.05,40.56,3.58,20,10.34,39.63,21.47,56.74,10.88,17.49,30.69,28.59,51.47,26.18,29.1-3,46-28.5,54.81-54,13.83-38.56,15.31-80.74,7.61-120.78-5-26.27-13.55-54.27-34.52-72.23-22.75-18.58-54.08-14.5-72.7,7.78a84,84,0,0,0-11.1,17c-14.95,30.58-20.3,65.05-21.09,98.79Z"/><path class="cls-3" d="M163.83,391.6a.34.34,0,0,0-.09-.24l0,0a3.49,3.49,0,0,0,2.21.32h2.9c24.87.12,64.25.29,89.42.33,4.07-.16,3.32-3.43,3.05-6.42l-.93-11.5q-.87-11.5-1.9-23c-1.56-15.22-2.56-31-9.31-44.95-6.53-14.06-17.45-26.62-33.84-27.84-21.76-1.55-34.41,14.91-41.11,33.57-4.06,10.79-6,22.23-7.23,33.67-1.59,15.3-2.45,30.66-3.22,46Zm-1-.05c.81-15.37,1.67-30.76,3.4-46.06,2.18-19,6.55-38.71,18.56-54a35.12,35.12,0,0,1,51.42-4.18c5.64,5.27,9.82,11.93,13.12,18.86a81.73,81.73,0,0,1,6.55,22.06c2.24,15.23,3.32,30.6,4.6,45.93l1,11.49c0,1.61.86,4.3-.43,5.68-1.49,1.45-3.73,1.12-5.61,1.18-21.36,0-59.8.2-80.78.18H166a4.2,4.2,0,0,1-3-.58.7.7,0,0,1-.24-.55Z"/><path class="cls-3" d="M163.82,403.73a.27.27,0,0,0,.26-.19l-.07.35c-.7,21.46.8,43.23,5.47,64.24,4,15.68,11.47,34.09,26,42.71,9.77,5.8,22.47,7,32.78,1.91,28.1-14.19,33.61-76,33.18-104.54,0-1,0-3.83-.06-4.74.07,0-.13,0-.23,0h-6.06l-91.23.24Zm0-1,91.23.23,5.7,0h.36c.13,0,.19-.05.47.06s.26.48.24.53v.36c0,5.2.24,10.48-.08,15.68-1.49,26.78-7.09,79.67-33.52,93.14-13.86,6.9-31.48,2.22-41.68-9-21.78-25-23.18-66.08-23.69-97.89a7.7,7.7,0,0,1,.19-2.18l.06-.34a.75.75,0,0,1,.72-.63Z"/><path class="cls-2" d="M343.5,462.87h-4.8V420.42h4.63c.43,1.69.73,3.39,1.33,5.07,2.14,5.91,10.4,9.51,23,9.75,9.32.18,18.68.2,28,0,15.11-.3,22.44-3.6,24.42-10.66.38-1.35.62-2.7.94-4.17h4.63v42.41h-4.62a25.45,25.45,0,0,0-.8-4.18c-2.13-6-9.51-9.53-22.28-9.95-10.35-.33-20.83-.38-31.18-.08-14.59.43-21.45,3.92-22.76,10.85C343.83,460.57,343.68,461.68,343.5,462.87Z"/><rect class="cls-2" x="100.85" y="549.99" width="56.35" height="55.68"/></g><g id="Capa_4_copia" data-name="Capa 4 copia"><polygon class="cls-1" points="100.34 549.3 157.89 606.1 157.89 549.3 100.34 549.3"/></g></svg>